<svg version="1.1" id="Layer_1" xmlns="http://www.w3.org/2000/svg" xmlns:xlink="http://www.w3.org/1999/xlink" x="0px" y="0px"
	 width="200"  height="200" viewBox="100 70 310 336" enable-background="new 0 0 500 500" xml:space="preserve">
<path fill="#02723A" opacity="1.000000" stroke="none"
	d="
M245.000000,0.999998
	C245.444443,1.000000 245.888901,1.000000 246.677704,1.393537
	C248.862366,2.167419 250.690384,2.794862 252.545013,2.887057
	C262.770447,3.395376 273.186768,2.704126 283.191559,4.430203
	C301.004028,7.503289 318.985382,10.338651 335.764252,17.771004
	C345.064514,21.890640 354.802917,25.095787 363.864838,29.663439
	C382.518768,39.065948 399.481140,51.044861 415.393188,64.637978
	C429.572571,76.750931 441.829803,90.633331 452.597565,105.619705
	C463.536591,120.844444 472.768188,137.206573 479.988770,154.716187
	C491.119171,181.707047 498.334930,209.431366 499.033661,238.729202
	C499.067963,240.167618 500.316742,241.577057 501.000000,243.000000
	C501.000000,247.689255 501.000000,252.378494 500.584167,257.565704
	C499.766907,259.244354 499.104004,260.404449 499.009003,261.609283
	C498.579681,267.056519 498.412903,272.524811 497.965546,277.970215
	C496.495667,295.862183 492.397949,313.261932 486.665985,330.171600
	C480.127716,349.459839 471.335327,367.714722 460.177063,384.919403
	C445.698944,407.242889 428.414551,426.874176 407.797150,443.611877
	C389.999908,458.060120 370.748993,470.146637 349.590210,479.095276
	C317.599487,492.625000 284.414215,500.235321 249.509415,498.943024
	C236.927795,498.477203 224.219803,498.435394 211.827454,496.525848
	C191.564804,493.403595 171.882065,487.743073 152.960281,479.555359
	C126.085007,467.925964 101.755714,452.352020 80.794731,431.989075
	C70.402756,421.893646 61.309082,410.428772 51.946571,399.315155
	C40.613453,385.862305 31.895374,370.680664 24.968132,354.602936
	C20.091333,343.284180 16.110399,331.548401 12.268523,319.822205
	C6.960302,303.620422 3.595659,286.845673 3.219563,269.872711
	C2.746995,248.545975 2.197399,227.206528 6.700773,205.943512
	C10.643785,187.326309 14.992367,168.959747 23.231844,151.811203
	C29.061668,139.677765 35.391010,127.705093 42.490406,116.277580
	C56.765133,93.300323 74.888214,73.709358 96.089279,56.781845
	C113.553032,42.838314 132.388428,31.401798 152.883942,22.707760
	C162.272827,18.725058 171.820114,14.892319 181.619400,12.147769
	C201.072159,6.699504 220.792511,2.381765 241.231674,2.918064
	C242.470154,2.950561 243.743088,1.669732 245.000000,0.999998
M305.969177,352.975281
	C305.969177,352.975281 305.926147,352.924927 305.349396,353.391296
	C305.183838,354.612671 305.018250,355.834015 304.710236,357.161957
	C304.710236,357.161957 304.810669,357.308807 304.285095,357.905151
	C303.902924,359.928192 303.520721,361.951233 302.915894,364.389191
	C302.915894,364.389191 302.937073,364.859589 302.403137,365.379608
	C301.664886,368.257477 300.926636,371.135345 299.963470,374.622559
	C299.921295,375.049042 299.879120,375.475555 299.598236,376.576477
	C301.180054,376.816864 302.760803,377.257050 304.343872,377.265533
	C315.580139,377.325836 326.816925,377.298340 338.053528,377.297638
	C347.945984,377.296997 347.945984,377.296326 349.175079,366.712860
	C349.175079,366.712860 349.109650,366.330902 349.601868,365.768738
	C350.342010,363.176117 351.082153,360.583527 352.060913,357.460938
	C352.072510,357.078979 352.084137,356.696991 352.462341,355.724243
	C352.593750,354.827423 352.725159,353.930634 353.038757,352.564484
	C353.035431,352.396667 353.032135,352.228882 353.531219,351.624298
	C353.636566,350.757996 353.741913,349.891724 354.054779,348.579834
	C354.054779,348.579834 354.034454,348.088684 354.564758,347.565674
	C355.356323,344.383179 356.147888,341.200714 357.200714,337.756073
	C357.200714,337.756073 357.177765,337.386658 357.691711,336.779419
	C358.128082,334.598969 358.564484,332.418488 359.117432,329.655762
	C343.393524,329.655762 328.329742,329.655762 312.389618,329.655762
	C316.591705,313.819214 320.620941,298.634125 324.707428,283.233215
	C308.303925,283.233215 292.891693,283.233215 277.285248,283.233215
	C273.124115,298.793793 269.018555,314.146454 264.787170,329.969757
	C267.370819,329.969757 269.185730,329.969727 271.000641,329.969788
	C283.309540,329.970215 295.618469,329.950348 307.927216,329.993958
	C309.690369,330.000214 312.313171,329.107208 311.673645,332.666901
	C311.673645,332.666901 311.666870,332.686188 311.151672,333.181396
	C310.762726,334.782715 310.373779,336.384064 310.000000,338.000000
	C310.000000,338.000000 309.984222,337.986481 309.470398,338.484009
	C309.317993,339.655792 309.165588,340.827545 308.795654,342.180969
	C308.795654,342.180969 308.894257,342.446655 308.420715,342.956024
	C308.334869,343.628845 308.249023,344.301636 307.943207,345.565948
	C307.935242,345.984894 307.927246,346.403870 307.427887,347.193298
	C307.347900,347.783661 307.267914,348.374054 307.015472,349.519257
	C307.019653,349.712891 307.023804,349.906555 306.614777,350.579041
	C306.377960,351.382263 306.141144,352.185486 305.969177,352.975281
M365.988708,123.985657
	C365.988708,123.985657 365.934784,123.939384 365.350739,124.391327
	C365.194122,125.608765 365.037506,126.826202 364.715973,128.143158
	C364.715973,128.143158 364.808472,128.312103 364.283936,128.897293
	C364.207611,129.927277 364.131317,130.957260 363.816772,132.202347
	C363.816772,132.202347 363.858551,132.520599 363.313080,133.087051
	C362.269684,137.063873 361.226288,141.040710 359.998505,145.622772
	C359.984497,146.043564 359.970459,146.464371 359.466705,147.236481
	C359.377991,147.812836 359.289276,148.389191 359.000244,149.475128
	C359.002716,149.657608 359.005219,149.840103 358.542419,150.546097
	C358.386017,151.694824 358.229614,152.843536 357.845093,154.329361
	C357.845093,154.329361 357.904266,154.732056 357.447205,155.258484
	C357.352570,156.163483 357.257935,157.068497 356.995636,158.472321
	C356.995239,158.647720 356.994812,158.823135 356.432892,159.484329
	C355.525055,164.849945 352.072021,165.573456 347.212555,165.429276
	C335.232819,165.073776 323.235229,165.345978 311.245239,165.285263
	C308.873016,165.273254 307.417114,165.518616 306.710571,168.440460
	C304.729370,176.633652 302.174927,184.686523 299.952881,192.823746
	C298.152252,199.417603 296.505615,206.053513 294.653381,213.200378
	C310.066284,213.200378 324.864685,213.271149 339.659088,213.060913
	C340.796326,213.044769 342.562439,211.232727 342.926056,209.942551
	C346.601746,196.899155 350.217651,183.832642 353.446198,170.673477
	C354.365051,166.928268 356.056854,166.080338 359.588654,166.133759
	C372.075714,166.322556 384.567688,166.251328 397.056824,166.152863
	C398.674072,166.140106 400.285553,165.390823 402.135010,164.682037
	C402.135010,164.682037 402.112427,164.300888 402.615051,163.896667
	C402.685852,163.272278 402.756683,162.647888 403.018707,161.442627
	C403.003052,161.239395 402.987366,161.036148 403.341736,160.348907
	C403.505615,159.574249 403.669525,158.799576 404.050507,157.558929
	C404.039490,157.387939 404.028442,157.216934 404.457947,156.491425
	C404.616028,155.333313 404.774109,154.175201 405.132111,152.646317
	C405.132111,152.646317 405.085999,152.227615 405.564270,151.843887
	C405.689301,151.261078 405.814331,150.678253 406.069855,150.052200
	C406.069855,150.052200 406.028412,149.921127 406.620209,149.492661
	C407.406464,145.667847 408.192688,141.843048 409.029266,138.002899
	C409.029266,138.002899 408.999512,137.959518 409.522400,137.479187
	C409.673828,136.320007 409.825226,135.160828 410.014282,133.995621
	C410.014282,133.995621 409.989105,133.966949 410.504700,133.518997
	C410.947998,132.006302 411.391266,130.493591 412.057526,128.475632
	C412.078979,128.112015 412.100433,127.748405 412.622345,126.862404
	C412.706055,125.918930 412.789795,124.975464 413.072174,123.613556
	C413.072174,123.613556 413.059052,123.150543 413.640808,122.604996
	C413.757690,121.344879 413.874573,120.084770 414.028748,118.422707
	C398.972717,118.422707 384.333527,118.379799 369.696381,118.531189
	C368.834320,118.540108 367.988464,120.114555 366.962952,121.432785
	C366.966125,121.600311 366.969299,121.767845 366.490967,122.298073
	C366.300079,122.857338 366.109222,123.416603 365.988708,123.985657
M280.060333,223.538116
	C279.426453,223.372543 278.792938,223.064178 278.158600,223.062439
	C264.437347,223.024506 250.715851,222.992432 236.994888,223.059021
	C235.767838,223.064972 234.544083,223.753448 233.147888,224.855194
	C233.104050,225.839218 233.060196,226.823242 232.471954,228.345901
	C228.632095,242.629105 224.792252,256.912323 220.779190,271.839844
	C236.375519,271.839844 251.277512,271.880890 266.177795,271.739746
	C267.090485,271.731110 268.553589,270.433014 268.809906,269.479309
	C272.400360,256.119629 275.825317,242.715439 279.760864,228.849091
	C279.848969,227.977036 279.937073,227.104996 280.338623,225.767014
	C280.351288,225.580261 280.363983,225.393524 280.713135,224.891937
	C280.829865,224.585205 280.811249,224.286972 280.060333,223.538116
M175.867004,212.961212
	C161.704193,212.973282 147.540909,213.047623 133.378937,212.944473
	C130.573715,212.924042 129.465103,213.694717 128.741013,216.619583
	C126.117546,227.216629 122.985313,237.686691 120.149803,248.232834
	C119.136566,252.001389 118.421036,255.849976 117.533333,259.824463
	C133.574783,259.824463 149.001938,259.824463 164.504822,259.824463
	C167.018997,250.982986 169.613220,242.437149 171.853683,233.799545
	C173.664673,226.817703 175.049408,219.725266 177.648804,212.930222
	C192.111511,212.973511 206.575150,213.096619 221.035385,212.928162
	C222.380035,212.912491 224.484329,211.302673 224.908112,210.000839
	C227.458908,202.164597 229.730057,194.231384 231.881500,186.272980
	C233.669250,179.660034 235.163574,172.967758 236.928955,165.732422
	C221.558762,165.732422 206.630127,165.682877 191.703903,165.850220
	C190.765869,165.860718 189.360748,167.407578 189.003357,168.509125
	C187.480606,173.202591 186.253113,177.992752 184.949722,182.756332
	C182.209991,192.769409 179.490311,202.787979 175.867004,212.961212
M148.078415,329.992432
	C162.215988,329.986572 176.353653,329.950623 190.491013,330.002411
	C193.050186,330.011810 194.540939,329.730621 195.279633,326.548615
	C197.066238,318.852692 199.686707,311.354736 201.760712,303.719849
	C203.591675,296.979584 205.138214,290.162018 206.847809,283.226471
	C190.848312,283.226471 175.271805,283.226471 159.442398,283.226471
	C155.375183,299.062805 151.355438,314.714325 146.397232,329.872620
	C132.101349,329.823456 117.804985,329.823334 103.510063,329.679352
	C100.973877,329.653839 99.659462,330.285492 98.972282,332.962524
	C95.939697,344.776459 92.650261,356.524261 89.511436,368.311371
	C88.767586,371.104706 88.246437,373.957336 87.565025,377.044678
	C103.541832,377.044678 118.939209,377.044678 134.705353,377.044678
	C138.892471,361.346466 143.042557,345.787109 148.078415,329.992432
M317.940399,100.803680
	C307.571930,77.038757 280.363678,70.790398 261.438385,82.207016
	C248.323273,90.118629 241.938095,102.066132 242.347366,117.094009
	C242.788193,133.280243 251.127213,145.359924 265.724670,151.725113
	C280.111328,157.998383 294.589661,156.280777 306.762909,145.784103
	C320.565277,133.882660 323.496765,118.675636 317.940399,100.803680
M291.996765,181.381165
	C293.149170,176.322708 294.301575,171.264252 295.565125,165.717926
	C280.288147,165.717926 265.831116,165.645355 251.378067,165.852737
	C250.194839,165.869720 248.418289,167.582291 247.979492,168.869125
	C246.224548,174.015778 244.811295,179.284821 243.415619,184.546768
	C240.937378,193.890228 238.563904,203.261475 236.034485,213.055222
	C251.446625,213.055222 266.081573,213.126022 280.712524,212.915314
	C281.833313,212.899185 283.536438,211.081573 283.932800,209.784683
	C286.729706,200.632385 289.255371,191.397171 291.996765,181.381165
z"/>
<path fill="#000000" opacity="1.000000" stroke="none"
	d="
M244.531342,0.999998
	C243.743088,1.669732 242.470154,2.950561 241.231674,2.918064
	C220.792511,2.381765 201.072159,6.699504 181.619400,12.147769
	C171.820114,14.892319 162.272827,18.725058 152.883942,22.707760
	C132.388428,31.401798 113.553032,42.838314 96.089279,56.781845
	C74.888214,73.709358 56.765133,93.300323 42.490406,116.277580
	C35.391010,127.705093 29.061668,139.677765 23.231844,151.811203
	C14.992367,168.959747 10.643785,187.326309 6.700773,205.943512
	C2.197399,227.206528 2.746995,248.545975 3.219563,269.872711
	C3.595659,286.845673 6.960302,303.620422 12.268523,319.822205
	C16.110399,331.548401 20.091333,343.284180 24.968132,354.602936
	C31.895374,370.680664 40.613453,385.862305 51.946571,399.315155
	C61.309082,410.428772 70.402756,421.893646 80.794731,431.989075
	C101.755714,452.352020 126.085007,467.925964 152.960281,479.555359
	C171.882065,487.743073 191.564804,493.403595 211.827454,496.525848
	C224.219803,498.435394 236.927795,498.477203 249.509415,498.943024
	C284.414215,500.235321 317.599487,492.625000 349.590210,479.095276
	C370.748993,470.146637 389.999908,458.060120 407.797150,443.611877
	C428.414551,426.874176 445.698944,407.242889 460.177063,384.919403
	C471.335327,367.714722 480.127716,349.459839 486.665985,330.171600
	C492.397949,313.261932 496.495667,295.862183 497.965546,277.970215
	C498.412903,272.524811 498.579681,267.056519 499.009003,261.609283
	C499.104004,260.404449 499.766907,259.244354 500.584167,258.031830
	C501.000000,338.976166 501.000000,419.952301 501.000000,500.964233
	C334.406250,500.964233 167.812454,500.964233 1.109343,500.964233
	C1.109343,334.455353 1.109343,167.910599 1.109343,1.000000
	C82.020531,1.000000 163.041611,1.000000 244.531342,0.999998
z"/>
<path fill="#000000" opacity="1.000000" stroke="none"
	d="
M501.000000,242.531342
	C500.316742,241.577057 499.067963,240.167618 499.033661,238.729202
	C498.334930,209.431366 491.119171,181.707047 479.988770,154.716187
	C472.768188,137.206573 463.536591,120.844444 452.597565,105.619705
	C441.829803,90.633331 429.572571,76.750931 415.393188,64.637978
	C399.481140,51.044861 382.518768,39.065948 363.864838,29.663439
	C354.802917,25.095787 345.064514,21.890640 335.764252,17.771004
	C318.985382,10.338651 301.004028,7.503289 283.191559,4.430203
	C273.186768,2.704126 262.770447,3.395376 252.545013,2.887057
	C250.690384,2.794862 248.862366,2.167419 247.011032,1.393537
	C331.591949,1.000000 416.183868,1.000000 501.000000,1.000000
	C501.000000,81.354088 501.000000,161.708389 501.000000,242.531342
z"/>
<path fill="#FCF102" opacity="1.000000" stroke="none"
	d="
M317.992126,101.196770
	C323.496765,118.675636 320.565277,133.882660 306.762909,145.784103
	C294.589661,156.280777 280.111328,157.998383 265.724670,151.725113
	C251.127213,145.359924 242.788193,133.280243 242.347366,117.094009
	C241.938095,102.066132 248.323273,90.118629 261.438385,82.207016
	C280.363678,70.790398 307.571930,77.038757 317.992126,101.196770
z"/>
<path fill="#FBF105" opacity="1.000000" stroke="none"
	d="
M311.672272,332.644714
	C312.313171,329.107208 309.690369,330.000214 307.927216,329.993958
	C295.618469,329.950348 283.309540,329.970215 271.000641,329.969788
	C269.185730,329.969727 267.370819,329.969757 264.787170,329.969757
	C269.018555,314.146454 273.124115,298.793793 277.285248,283.233215
	C292.891693,283.233215 308.303925,283.233215 324.707428,283.233215
	C320.620941,298.634125 316.591705,313.819214 312.389618,329.655762
	C328.329742,329.655762 343.393524,329.655762 359.117432,329.655762
	C358.564484,332.418488 358.128082,334.598969 357.388306,336.681946
	C357.029327,333.431000 355.683228,332.659454 352.373749,332.718506
	C338.811340,332.960480 325.240204,332.712402 311.672272,332.644714
z"/>
<path fill="#F8F006" opacity="1.000000" stroke="none"
	d="
M401.899689,164.982712
	C400.285553,165.390823 398.674072,166.140106 397.056824,166.152863
	C384.567688,166.251328 372.075714,166.322556 359.588654,166.133759
	C356.056854,166.080338 354.365051,166.928268 353.446198,170.673477
	C350.217651,183.832642 346.601746,196.899155 342.926056,209.942551
	C342.562439,211.232727 340.796326,213.044769 339.659088,213.060913
	C324.864685,213.271149 310.066284,213.200378 294.653381,213.200378
	C296.505615,206.053513 298.152252,199.417603 299.952881,192.823746
	C302.174927,184.686523 304.729370,176.633652 306.710571,168.440460
	C307.417114,165.518616 308.873016,165.273254 311.245239,165.285263
	C323.235229,165.345978 335.232819,165.073776 347.212555,165.429276
	C352.072021,165.573456 355.525055,164.849945 356.718262,159.625977
	C357.003601,161.331497 357.003601,162.895386 357.003601,164.982712
	C372.232819,164.982712 387.066254,164.982712 401.899689,164.982712
z"/>
<path fill="#FCF104" opacity="1.000000" stroke="none"
	d="
M147.335693,330.365875
	C151.355438,314.714325 155.375183,299.062805 159.442398,283.226471
	C175.271805,283.226471 190.848312,283.226471 206.847809,283.226471
	C205.138214,290.162018 203.591675,296.979584 201.760712,303.719849
	C199.686707,311.354736 197.066238,318.852692 195.279633,326.548615
	C194.540939,329.730621 193.050186,330.011810 190.491013,330.002411
	C176.353653,329.950623 162.215988,329.986572 147.674667,330.141113
	C147.270920,330.289825 147.335693,330.365875 147.335693,330.365875
z"/>
<path fill="#FCF204" opacity="1.000000" stroke="none"
	d="
M176.623230,212.681900
	C175.049408,219.725266 173.664673,226.817703 171.853683,233.799545
	C169.613220,242.437149 167.018997,250.982986 164.504822,259.824463
	C149.001938,259.824463 133.574783,259.824463 117.533333,259.824463
	C118.421036,255.849976 119.136566,252.001389 120.149803,248.232834
	C122.985313,237.686691 126.117546,227.216629 128.741013,216.619583
	C129.465103,213.694717 130.573715,212.924042 133.378937,212.944473
	C147.540909,213.047623 161.704193,212.973282 176.281281,212.850586
	C176.695557,212.739975 176.623230,212.681900 176.623230,212.681900
z"/>
<path fill="#FCF104" opacity="1.000000" stroke="none"
	d="
M176.728973,212.772125
	C179.490311,202.787979 182.209991,192.769409 184.949722,182.756332
	C186.253113,177.992752 187.480606,173.202591 189.003357,168.509125
	C189.360748,167.407578 190.765869,165.860718 191.703903,165.850220
	C206.630127,165.682877 221.558762,165.732422 236.928955,165.732422
	C235.163574,172.967758 233.669250,179.660034 231.881500,186.272980
	C229.730057,194.231384 227.458908,202.164597 224.908112,210.000839
	C224.484329,211.302673 222.380035,212.912491 221.035385,212.928162
	C206.575150,213.096619 192.111511,212.973511 177.136017,212.806061
	C176.623230,212.681900 176.695557,212.739975 176.728973,212.772125
z"/>
<path fill="#FCF103" opacity="1.000000" stroke="none"
	d="
M147.231781,330.258789
	C143.042557,345.787109 138.892471,361.346466 134.705353,377.044678
	C118.939209,377.044678 103.541832,377.044678 87.565025,377.044678
	C88.246437,373.957336 88.767586,371.104706 89.511436,368.311371
	C92.650261,356.524261 95.939697,344.776459 98.972282,332.962524
	C99.659462,330.285492 100.973877,329.653839 103.510063,329.679352
	C117.804985,329.823334 132.101349,329.823456 146.866455,330.119263
	C147.335693,330.365875 147.270920,330.289825 147.231781,330.258789
z"/>
<path fill="#FCF204" opacity="1.000000" stroke="none"
	d="
M291.932190,181.784790
	C289.255371,191.397171 286.729706,200.632385 283.932800,209.784683
	C283.536438,211.081573 281.833313,212.899185 280.712524,212.915314
	C266.081573,213.126022 251.446625,213.055222 236.034485,213.055222
	C238.563904,203.261475 240.937378,193.890228 243.415619,184.546768
	C244.811295,179.284821 246.224548,174.015778 247.979492,168.869125
	C248.418289,167.582291 250.194839,165.869720 251.378067,165.852737
	C265.831116,165.645355 280.288147,165.717926 295.565125,165.717926
	C294.301575,171.264252 293.149170,176.322708 291.932190,181.784790
z"/>
<path fill="#FBF104" opacity="1.000000" stroke="none"
	d="
M279.290527,229.322083
	C275.825317,242.715439 272.400360,256.119629 268.809906,269.479309
	C268.553589,270.433014 267.090485,271.731110 266.177795,271.739746
	C251.277512,271.880890 236.375519,271.839844 220.779190,271.839844
	C224.792252,256.912323 228.632095,242.629105 232.988434,227.824554
	C235.025024,226.534698 236.540329,225.110947 238.065994,225.099777
	C252.168533,224.996490 266.272858,225.137085 280.376648,225.206772
	C280.363983,225.393524 280.351288,225.580261 279.971191,226.249298
	C279.499359,227.595093 279.394958,228.458588 279.290527,229.322083
z"/>
<path fill="#FEF200" opacity="1.000000" stroke="none"
	d="
M402.017334,164.832367
	C387.066254,164.982712 372.232819,164.982712 357.003601,164.982712
	C357.003601,162.895386 357.003601,161.331497 356.999023,159.383087
	C356.994812,158.823135 356.995239,158.647720 357.253235,157.931458
	C357.641998,156.504410 357.773132,155.618240 357.904266,154.732056
	C357.904266,154.732056 357.845093,154.329361 358.150391,153.872131
	C358.639679,152.284149 358.823700,151.153381 359.007690,150.022598
	C359.005219,149.840103 359.002716,149.657608 359.262756,148.989975
	C359.668976,147.964935 359.812714,147.425049 359.956451,146.885162
	C359.970459,146.464371 359.984497,146.043564 360.399963,145.164108
	C361.820435,140.643829 362.839508,136.582214 363.858551,132.520599
	C363.858551,132.520599 363.816772,132.202347 364.130371,131.766235
	C364.565460,130.324127 364.686951,129.318115 364.808472,128.312103
	C364.808472,128.312103 364.715973,128.143158 365.020844,127.806427
	C365.528748,126.292923 365.731750,125.116158 365.934784,123.939384
	C365.934784,123.939384 365.988708,123.985657 366.162506,123.771912
	C366.548370,123.017242 366.760437,122.476318 366.972473,121.935394
	C366.969299,121.767845 366.966125,121.600311 367.327515,120.945175
	C369.229919,119.993004 370.765961,119.133514 372.305908,119.126549
	C384.254425,119.072517 396.208588,119.031929 408.147217,119.415131
	C409.822754,119.468918 411.423645,121.847870 413.059052,123.150543
	C413.059052,123.150543 413.072174,123.613556 412.791992,124.122681
	C412.381866,125.549477 412.251862,126.467133 412.121887,127.384796
	C412.100433,127.748405 412.078979,128.112015 411.639709,128.893021
	C410.810944,130.862595 410.400024,132.414764 409.989105,133.966949
	C409.989105,133.966949 410.014282,133.995621 409.796936,134.282410
	C409.386200,135.699310 409.192871,136.829407 408.999512,137.959518
	C408.999512,137.959518 409.029266,138.002899 408.785767,138.298401
	C407.704315,142.369629 406.866364,146.145386 406.028412,149.921127
	C406.028412,149.921127 406.069855,150.052200 405.814636,150.296356
	C405.401611,151.102890 405.243805,151.665253 405.085999,152.227615
	C405.085999,152.227615 405.132111,152.646317 404.839478,153.124512
	C404.370361,154.750443 404.193878,155.898178 404.017395,157.045914
	C404.028442,157.216934 404.039490,157.387939 403.769623,158.038712
	C403.316406,159.289963 403.144043,160.061432 402.971710,160.832901
	C402.987366,161.036148 403.003052,161.239395 402.759583,161.989563
	C402.371124,163.124619 402.241760,163.712753 402.112427,164.300888
	C402.112427,164.300888 402.135010,164.682037 402.017334,164.832367
z"/>
<path fill="#FEF200" opacity="1.000000" stroke="none"
	d="
M311.672974,332.655823
	C325.240204,332.712402 338.811340,332.960480 352.373749,332.718506
	C355.683228,332.659454 357.029327,333.431000 357.131348,336.985565
	C357.177765,337.386658 357.200714,337.756073 356.832397,338.148621
	C355.654205,341.723663 354.844330,344.906158 354.034454,348.088684
	C354.034454,348.088684 354.054779,348.579834 353.778564,349.073242
	C353.344543,350.398102 353.186707,351.229614 353.028839,352.061096
	C353.032135,352.228882 353.035431,352.396667 352.770142,353.092316
	C352.366302,354.518433 352.231018,355.416748 352.095764,356.315033
	C352.084137,356.696991 352.072510,357.078979 351.616089,357.875793
	C350.484039,360.970734 349.796844,363.650818 349.109680,366.330902
	C349.109650,366.330902 349.175079,366.712860 348.826660,367.123840
	C346.484741,374.691071 341.632416,376.475891 334.572571,376.136841
	C323.016907,375.581879 311.417725,375.933075 299.836914,375.902039
	C299.879120,375.475555 299.921295,375.049042 300.399841,374.166901
	C301.536530,370.760712 302.236816,367.810150 302.937073,364.859589
	C302.937073,364.859589 302.915894,364.389191 303.289917,364.002533
	C304.046204,361.513519 304.428436,359.411163 304.810669,357.308807
	C304.810669,357.308807 304.710236,357.161957 305.005066,356.819397
	C305.508636,355.292877 305.717377,354.108917 305.926147,352.924927
	C305.926147,352.924927 305.969177,352.975281 306.150360,352.743774
	C306.563690,351.708252 306.795807,350.904236 307.027954,350.100189
	C307.023804,349.906555 307.019653,349.712891 307.260132,349.001404
	C307.642975,347.929962 307.781128,347.376404 307.919312,346.822815
	C307.927246,346.403870 307.935242,345.984894 308.218811,344.982117
	C308.627686,343.747711 308.760986,343.097198 308.894257,342.446655
	C308.894257,342.446655 308.795654,342.180969 309.102783,341.800964
	C309.601349,340.276123 309.792786,339.131287 309.984222,337.986481
	C309.984222,337.986481 310.000000,338.000000 310.324341,337.830627
	C310.988098,336.002899 311.327484,334.344543 311.666870,332.686188
	C311.666870,332.686188 311.673645,332.666901 311.672974,332.655823
z"/>
<path fill="#FBF105" opacity="1.000000" stroke="none"
	d="
M299.717590,376.239258
	C311.417725,375.933075 323.016907,375.581879 334.572571,376.136841
	C341.632416,376.475891 346.484741,374.691071 348.707642,367.276672
	C347.945984,377.296326 347.945984,377.296997 338.053528,377.297638
	C326.816925,377.298340 315.580139,377.325836 304.343872,377.265533
	C302.760803,377.257050 301.180054,376.816864 299.717590,376.239258
z"/>
<path fill="#F8F006" opacity="1.000000" stroke="none"
	d="
M413.349915,122.877762
	C411.423645,121.847870 409.822754,119.468918 408.147217,119.415131
	C396.208588,119.031929 384.254425,119.072517 372.305908,119.126549
	C370.765961,119.133514 369.229919,119.993004 367.413574,120.709030
	C367.988464,120.114555 368.834320,118.540108 369.696381,118.531189
	C384.333527,118.379799 398.972717,118.422707 414.028748,118.422707
	C413.874573,120.084770 413.757690,121.344879 413.349915,122.877762
z"/>
<path fill="#EBF329" opacity="1.000000" stroke="none"
	d="
M280.544891,225.049347
	C266.272858,225.137085 252.168533,224.996490 238.065994,225.099777
	C236.540329,225.110947 235.025024,226.534698 233.260651,227.555237
	C233.060196,226.823242 233.104050,225.839218 233.668884,224.458466
	C249.679016,224.040237 265.168152,224.018738 280.657288,223.997238
	C280.811249,224.286972 280.829865,224.585205 280.544891,225.049347
z"/>
<path fill="#1B6613" opacity="1.000000" stroke="none"
	d="
M280.358826,223.767670
	C265.168152,224.018738 249.679016,224.040237 233.754333,224.093338
	C234.544083,223.753448 235.767838,223.064972 236.994888,223.059021
	C250.715851,222.992432 264.437347,223.024506 278.158600,223.062439
	C278.792938,223.064178 279.426453,223.372543 280.358826,223.767670
z"/>
<path fill="#F8F006" opacity="1.000000" stroke="none"
	d="
M363.585815,132.803833
	C362.839508,136.582214 361.820435,140.643829 360.492126,144.861496
	C361.226288,141.040710 362.269684,137.063873 363.585815,132.803833
z"/>
<path fill="#F8F006" opacity="1.000000" stroke="none"
	d="
M406.324310,149.706894
	C406.866364,146.145386 407.704315,142.369629 408.760620,138.306061
	C408.192688,141.843048 407.406464,145.667847 406.324310,149.706894
z"/>
<path fill="#FBF105" opacity="1.000000" stroke="none"
	d="
M302.670105,365.119598
	C302.236816,367.810150 301.536530,370.760712 300.512329,373.862244
	C300.926636,371.135345 301.664886,368.257477 302.670105,365.119598
z"/>
<path fill="#FBF105" opacity="1.000000" stroke="none"
	d="
M354.299622,347.827179
	C354.844330,344.906158 355.654205,341.723663 356.701782,338.279663
	C356.147888,341.200714 355.356323,344.383179 354.299622,347.827179
z"/>
<path fill="#FBF105" opacity="1.000000" stroke="none"
	d="
M349.355774,366.049805
	C349.796844,363.650818 350.484039,360.970734 351.496765,358.140778
	C351.082153,360.583527 350.342010,363.176117 349.355774,366.049805
z"/>
<path fill="#FBF105" opacity="1.000000" stroke="none"
	d="
M304.547882,357.606995
	C304.428436,359.411163 304.046204,361.513519 303.401245,363.795074
	C303.520721,361.951233 303.902924,359.928192 304.547882,357.606995
z"/>
<path fill="#FBF105" opacity="1.000000" stroke="none"
	d="
M311.409271,332.933777
	C311.327484,334.344543 310.988098,336.002899 310.316772,337.823303
	C310.373779,336.384064 310.762726,334.782715 311.409271,332.933777
z"/>
<path fill="#F8F006" opacity="1.000000" stroke="none"
	d="
M410.246887,133.742981
	C410.400024,132.414764 410.810944,130.862595 411.528198,129.145660
	C411.391266,130.493591 410.947998,132.006302 410.246887,133.742981
z"/>
<path fill="#F8F006" opacity="1.000000" stroke="none"
	d="
M404.237671,156.768677
	C404.193878,155.898178 404.370361,154.750443 404.739502,153.309906
	C404.774109,154.175201 404.616028,155.333313 404.237671,156.768677
z"/>
<path fill="#F8F006" opacity="1.000000" stroke="none"
	d="
M365.642761,124.165359
	C365.731750,125.116158 365.528748,126.292923 365.103302,127.756668
	C365.037506,126.826202 365.194122,125.608765 365.642761,124.165359
z"/>
<path fill="#F8F006" opacity="1.000000" stroke="none"
	d="
M409.260956,137.719360
	C409.192871,136.829407 409.386200,135.699310 409.778076,134.285431
	C409.825226,135.160828 409.673828,136.320007 409.260956,137.719360
z"/>
<path fill="#F8F006" opacity="1.000000" stroke="none"
	d="
M358.775085,150.284348
	C358.823700,151.153381 358.639679,152.284149 358.264404,153.703583
	C358.229614,152.843536 358.386017,151.694824 358.775085,150.284348
z"/>
<path fill="#FBF105" opacity="1.000000" stroke="none"
	d="
M309.727295,338.235229
	C309.792786,339.131287 309.601349,340.276123 309.211548,341.710144
	C309.165588,340.827545 309.317993,339.655792 309.727295,338.235229
z"/>
<path fill="#FBF105" opacity="1.000000" stroke="none"
	d="
M305.637756,353.158112
	C305.717377,354.108917 305.508636,355.292877 305.076294,356.766113
	C305.018250,355.834015 305.183838,354.612671 305.637756,353.158112
z"/>
<path fill="#EBF329" opacity="1.000000" stroke="none"
	d="
M279.525696,229.085587
	C279.394958,228.458588 279.499359,227.595093 279.814484,226.482269
	C279.937073,227.104996 279.848969,227.977036 279.525696,229.085587
z"/>
<path fill="#F8F006" opacity="1.000000" stroke="none"
	d="
M364.546204,128.604706
	C364.686951,129.318115 364.565460,130.324127 364.249512,131.658691
	C364.131317,130.957260 364.207611,129.927277 364.546204,128.604706
z"/>
<path fill="#F8F006" opacity="1.000000" stroke="none"
	d="
M412.372131,127.123596
	C412.251862,126.467133 412.381866,125.549477 412.692688,124.331909
	C412.789795,124.975464 412.706055,125.918930 412.372131,127.123596
z"/>
<path fill="#FBF105" opacity="1.000000" stroke="none"
	d="
M352.279053,356.019653
	C352.231018,355.416748 352.366302,354.518433 352.679077,353.326965
	C352.725159,353.930634 352.593750,354.827423 352.279053,356.019653
z"/>
<path fill="#FBF105" opacity="1.000000" stroke="none"
	d="
M306.821350,350.339600
	C306.795807,350.904236 306.563690,351.708252 306.117920,352.750488
	C306.141144,352.185486 306.377960,351.382263 306.821350,350.339600
z"/>
<path fill="#FBF105" opacity="1.000000" stroke="none"
	d="
M353.280029,351.842712
	C353.186707,351.229614 353.344543,350.398102 353.674805,349.296021
	C353.741913,349.891724 353.636566,350.757996 353.280029,351.842712
z"/>
<path fill="#F8F006" opacity="1.000000" stroke="none"
	d="
M403.156738,160.590912
	C403.144043,160.061432 403.316406,159.289963 403.661072,158.271698
	C403.669525,158.799576 403.505615,159.574249 403.156738,160.590912
z"/>
<path fill="#F8F006" opacity="1.000000" stroke="none"
	d="
M357.675720,154.995270
	C357.773132,155.618240 357.641998,156.504410 357.337097,157.682037
	C357.257935,157.068497 357.352570,156.163483 357.675720,154.995270
z"/>
<path fill="#FBF105" opacity="1.000000" stroke="none"
	d="
M307.673584,347.008057
	C307.781128,347.376404 307.642975,347.929962 307.346375,348.723999
	C307.267914,348.374054 307.347900,347.783661 307.673584,347.008057
z"/>
<path fill="#FBF105" opacity="1.000000" stroke="none"
	d="
M308.657471,342.701355
	C308.760986,343.097198 308.627686,343.747711 308.328796,344.686340
	C308.249023,344.301636 308.334869,343.628845 308.657471,342.701355
z"/>
<path fill="#F8F006" opacity="1.000000" stroke="none"
	d="
M359.711578,147.060822
	C359.812714,147.425049 359.668976,147.964935 359.362915,148.735184
	C359.289276,148.389191 359.377991,147.812836 359.711578,147.060822
z"/>
<path fill="#F8F006" opacity="1.000000" stroke="none"
	d="
M405.325134,152.035751
	C405.243805,151.665253 405.401611,151.102890 405.749390,150.317978
	C405.814331,150.678253 405.689301,151.261078 405.325134,152.035751
z"/>
<path fill="#F8F006" opacity="1.000000" stroke="none"
	d="
M402.363708,164.098785
	C402.241760,163.712753 402.371124,163.124619 402.663971,162.279999
	C402.756683,162.647888 402.685852,163.272278 402.363708,164.098785
z"/>
<path fill="#F8F006" opacity="1.000000" stroke="none"
	d="
M366.731750,122.116730
	C366.760437,122.476318 366.548370,123.017242 366.127319,123.767014
	C366.109222,123.416603 366.300079,122.857338 366.731750,122.116730
z"/>
</svg>
