<!DOCTYPE svg PUBLIC "-//W3C//DTD SVG 1.1//EN" "http://www.w3.org/Graphics/SVG/1.1/DTD/svg11.dtd">

<!-- Uploaded to: SVG Repo, www.svgrepo.com, Transformed by: SVG Repo Mixer Tools -->
<svg height="35px" width="35px" version="1.1" id="Layer_1" xmlns="http://www.w3.org/2000/svg" xmlns:xlink="http://www.w3.org/1999/xlink" viewBox="0 0 502 502" xml:space="preserve" fill="#000000" transform="matrix(-1, 0, 0, 1, 0, 0)">

<g id="SVGRepo_bgCarrier" stroke-width="0"/>

<g id="SVGRepo_tracerCarrier" stroke-linecap="round" stroke-linejoin="round"/>

<g id="SVGRepo_iconCarrier"> <g> <polygon style="fill:#8DDEAF;" points="367,382.658 367,103 274,10 21,10 21,492 367,492 367,460.176 328.241,421.417 "/> <polygon style="fill:#4EC9DC;" points="274,103 274,10 367,103 "/> <g> <path d="M247,174H81.5c-5.523,0-10-4.477-10-10s4.477-10,10-10H247c5.523,0,10,4.477,10,10S252.523,174,247,174z"/> </g> <g> <path d="M306.5,240h-225c-5.523,0-10-4.477-10-10s4.477-10,10-10h225c5.523,0,10,4.477,10,10S312.023,240,306.5,240z"/> </g> <g> <path d="M306.5,306h-225c-5.523,0-10-4.477-10-10s4.477-10,10-10h225c5.523,0,10,4.477,10,10S312.023,306,306.5,306z"/> </g> <g> <path d="M306.5,372h-225c-5.523,0-10-4.477-10-10s4.477-10,10-10h225c5.523,0,10,4.477,10,10S312.023,372,306.5,372z"/> </g> <g> <path d="M306.5,174h-22c-5.523,0-10-4.477-10-10s4.477-10,10-10h22c5.523,0,10,4.477,10,10S312.023,174,306.5,174z"/> </g> <g> <path style="fill:#4EC9DC;" d="M433.287,389.417c-7.891,0-14.287-6.397-14.287-14.287v-9.98c0-12.728-15.389-19.103-24.39-10.103 L367,382.658l-38.759,38.759L367,460.176l27.61,27.61c9,9,24.39,2.626,24.39-10.102v-9.98c0-7.891,6.396-14.287,14.287-14.287H481 v-64L433.287,389.417L433.287,389.417z"/> <path d="M481,379.417h-47.713c-2.364,0-4.287-1.923-4.287-4.287v-9.98c0-9.858-5.885-18.666-14.993-22.438 s-19.497-1.706-26.468,5.265L377,358.516V103c0-2.652-1.054-5.196-2.929-7.071l-93-93C279.196,1.054,276.652,0,274,0H21 c-5.523,0-10,4.477-10,10v482c0,5.523,4.477,10,10,10h346c5.523,0,10-4.477,10-10v-7.681l10.539,10.539 c4.658,4.657,10.841,7.125,17.149,7.125c3.133,0,6.297-0.609,9.319-1.861c9.107-3.772,14.993-12.58,14.993-22.438v-9.98 c0-2.364,1.923-4.287,4.287-4.287H481c5.523,0,10-4.477,10-10v-64C491,383.894,486.523,379.417,481,379.417z M284,34.142 L342.858,93H284V34.142z M321.169,414.346c-1.406,1.407-2.351,3.189-2.735,5.111c-0.128,0.641-0.194,1.297-0.194,1.96 c0,2.652,1.054,5.196,2.929,7.071L357,464.319V482H31V20h233v83c0,5.523,4.477,10,10,10h83v265.516L321.169,414.346z M342.383,421.417l59.298-59.298c1.763-1.762,3.684-1.338,4.672-0.929s2.646,1.468,2.646,3.96v9.98 c0,13.392,10.895,24.287,24.287,24.287H471v44h-37.713c-13.392,0-24.287,10.895-24.287,24.287v9.98 c0,2.493-1.658,3.551-2.646,3.961c-0.99,0.409-2.911,0.833-4.672-0.93L342.383,421.417z"/> </g> </g> </g>

</svg>
