<!DOCTYPE svg PUBLIC "-//W3C//DTD SVG 1.1//EN" "http://www.w3.org/Graphics/SVG/1.1/DTD/svg11.dtd">

<!-- Uploaded to: SVG Repo, www.svgrepo.com, Transformed by: SVG Repo Mixer Tools -->
<svg height="35px" width="35px" version="1.1" id="Layer_1" xmlns="http://www.w3.org/2000/svg" xmlns:xlink="http://www.w3.org/1999/xlink" viewBox="0 0 512 512" xml:space="preserve" fill="#000000">

<g id="SVGRepo_bgCarrier" stroke-width="0"/>

<g id="SVGRepo_tracerCarrier" stroke-linecap="round" stroke-linejoin="round"/>

<g id="SVGRepo_iconCarrier"> <circle style="fill:#8DDEAF;" cx="256" cy="256" r="256"/> <path style="fill:#388f75;" d="M295.633,508.943c103.743-16.125,186.871-94.537,209.96-195.806L345.124,152.669l-48.647,102.434 l-98.228-98.228l-34.478,17.67l115.915,115.915l-103.35,99.185L295.633,508.943z"/> <path style="fill:#F9B54C;" d="M319.354,396.929H192.646c-12.14,0-21.98-9.84-21.98-21.98V169.374h170.667v205.576 C341.333,387.089,331.493,396.929,319.354,396.929z"/> <path style="fill:#F4A200;" d="M256.288,169.374v227.556h63.066c12.14,0,21.98-9.84,21.98-21.98V169.374H256.288z"/> <path style="fill:#935635;" d="M348.229,174.545H163.771v-12.428c0-8.847,7.171-16.017,16.017-16.017H332.21 c8.847,0,16.019,7.171,16.019,16.017V174.545z"/> <path style="fill:#804000;" d="M348.229,162.12c0-8.847-7.171-16.019-16.019-16.019h-75.924v28.444h91.943V162.12z"/> <circle style="fill:#F1543F;" cx="256" cy="274.101" r="42.667"/> <path style="fill:#C1321F;" d="M298.667,274.101c0-23.468-18.947-42.505-42.379-42.66v85.32 C279.719,316.606,298.667,297.569,298.667,274.101z"/> </g>

</svg>
